# Blender 4.0.2
# www.blender.org
o big_tunnel_straight
v -2.000000 0.000000 -2.000000
v 0.000000 2.486118 -2.000000
v -0.751992 2.373313 -2.000000
v -1.396145 2.058767 -2.000000
v -1.817811 1.571018 -2.000000
v -2.000000 1.000000 -2.000000
v 0.751992 2.373313 -2.000000
v 1.396145 2.058767 -2.000000
v 1.817811 1.571018 -2.000000
v 2.000000 1.000000 -2.000000
v -1.000000 0.000000 -2.000000
v 0.000000 -0.300000 -2.000000
v 1.000000 0.000000 -2.000000
v 0.900002 -0.300000 -2.000000
v -0.900000 -0.300000 -2.000000
v 1.931008 1.294354 -2.000000
v 1.643680 1.835611 -2.000000
v 1.091651 2.238518 -2.000000
v 0.384286 2.457644 -2.000000
v -0.384286 2.457644 -2.000000
v -1.091651 2.238518 -2.000000
v -1.643680 1.835611 -2.000000
v -1.931008 1.294354 -2.000000
v -2.000000 0.000000 2.000000
v -0.751992 2.373313 2.000000
v -1.396145 2.058767 2.000000
v -1.817811 1.571018 2.000000
v -2.000000 1.000000 2.000000
v 0.000000 2.486118 2.000000
v 0.751992 2.373313 2.000000
v 1.396145 2.058767 2.000000
v 1.817811 1.571018 2.000000
v 2.000000 1.000000 2.000000
v -1.000000 0.000000 2.000000
v 0.000000 -0.300000 2.000000
v 1.000000 0.000000 2.000000
v 0.900002 -0.300000 2.000000
v -0.900000 -0.300000 2.000000
v 1.931008 1.294354 2.000000
v 1.643680 1.835611 2.000000
v 1.091651 2.238518 2.000000
v 0.384286 2.457644 2.000000
v -0.384286 2.457644 2.000000
v -1.091651 2.238518 2.000000
v -1.643680 1.835611 2.000000
v -1.931008 1.294354 2.000000
v 2.000000 0.000000 2.000000
v 2.000000 0.000000 -2.000000
vn -0.0000 1.0000 -0.0000
vn 1.0000 -0.0000 -0.0000
vn 0.9736 -0.2282 -0.0000
vn 0.8353 -0.5497 -0.0000
vn 0.5084 -0.8611 -0.0000
vn 0.2235 -0.9747 -0.0000
vn 0.0739 -0.9973 -0.0000
vn 0.3689 -0.9295 -0.0000
vn 0.6696 -0.7427 -0.0000
vn 0.9255 -0.3787 -0.0000
vn -0.0739 -0.9973 -0.0000
vn -0.3689 -0.9295 -0.0000
vn -0.6696 -0.7427 -0.0000
vn -0.9255 -0.3787 -0.0000
vn 0.9487 0.3162 -0.0000
vn -0.9487 0.3162 -0.0000
vn -0.9736 -0.2282 -0.0000
vn -0.8353 -0.5497 -0.0000
vn -0.5084 -0.8611 -0.0000
vn -0.2235 -0.9747 -0.0000
vn -1.0000 -0.0000 -0.0000
vt 0.250000 0.687500
vt 0.203125 0.625000
vt 0.203125 0.687500
vt 0.296875 0.687500
vt 0.250000 0.625000
vt 0.375000 0.125000
vt 0.500000 0.062500
vt 0.375000 0.062500
vt 0.523918 0.125000
vt 0.523918 0.062500
vt 0.547835 0.062500
vt 0.586418 0.125000
vt 0.586418 0.062500
vt 0.875000 0.687500
vt 0.836418 0.625000
vt 0.836418 0.687500
vt 0.797835 0.687500
vt 0.773918 0.625000
vt 0.773918 0.687500
vt 0.750000 0.625000
vt 0.750000 0.687500
vt 0.797835 0.625000
vt 0.625000 0.125000
vt 0.625000 0.062500
vt 0.547835 0.125000
vt 0.726082 0.625000
vt 0.663582 0.625000
vt 0.702165 0.687500
vt 0.702165 0.625000
vt 0.586418 0.625000
vt 0.625000 0.687500
vt 0.625000 0.625000
vt 0.523918 0.625000
vt 0.547835 0.687500
vt 0.547835 0.625000
vt 0.187500 0.687500
vt 0.187500 0.625000
vt 0.312500 0.625000
vt 0.296875 0.625000
vt 0.125000 0.687500
vt 0.125000 0.625000
vt 0.500000 0.625000
vt 0.523918 0.687500
vt 0.586418 0.687500
vt 0.663582 0.687500
vt 0.726082 0.687500
vt 0.375000 0.687500
vt 0.375000 0.625000
vt 0.312500 0.687500
vt 0.500000 0.125000
vt 0.875000 0.625000
vt 0.500000 0.687500
s 0
f 35/1/1 15/2/1 38/3/1
f 37/4/1 12/5/1 35/1/1
f 1/6/2 28/7/2 24/8/2
f 28/7/3 23/9/3 46/10/3
f 27/11/4 22/12/4 45/13/4
f 26/14/5 21/15/5 44/16/5
f 25/17/6 20/18/6 43/19/6
f 43/19/7 2/20/7 29/21/7
f 44/16/8 3/22/8 25/17/8
f 45/13/9 4/23/9 26/24/9
f 46/10/10 5/25/10 27/11/10
f 19/26/11 29/21/11 2/20/11
f 18/27/12 30/28/12 7/29/12
f 17/30/13 31/31/13 8/32/13
f 16/33/14 32/34/14 9/35/14
f 34/36/15 15/2/15 11/37/15
f 37/4/16 13/38/16 14/39/16
f 24/40/1 11/37/1 1/41/1
f 10/42/17 39/43/17 16/33/17
f 9/35/18 40/44/18 17/30/18
f 8/32/19 41/45/19 18/27/19
f 7/29/20 42/46/20 19/26/20
f 47/47/21 10/42/21 48/48/21
f 36/49/1 48/48/1 13/38/1
f 35/1/1 12/5/1 15/2/1
f 37/4/1 14/39/1 12/5/1
f 1/6/2 6/50/2 28/7/2
f 28/7/3 6/50/3 23/9/3
f 27/11/4 5/25/4 22/12/4
f 26/14/5 4/51/5 21/15/5
f 25/17/6 3/22/6 20/18/6
f 43/19/7 20/18/7 2/20/7
f 44/16/8 21/15/8 3/22/8
f 45/13/9 22/12/9 4/23/9
f 46/10/10 23/9/10 5/25/10
f 19/26/11 42/46/11 29/21/11
f 18/27/12 41/45/12 30/28/12
f 17/30/13 40/44/13 31/31/13
f 16/33/14 39/43/14 32/34/14
f 34/36/15 38/3/15 15/2/15
f 37/4/16 36/49/16 13/38/16
f 24/40/1 34/36/1 11/37/1
f 10/42/17 33/52/17 39/43/17
f 9/35/18 32/34/18 40/44/18
f 8/32/19 31/31/19 41/45/19
f 7/29/20 30/28/20 42/46/20
f 47/47/21 33/52/21 10/42/21
f 36/49/1 47/47/1 48/48/1
