# Blender 4.0.2
# www.blender.org
o big_tunnel_turn_T
v -0.751992 2.373313 3.000000
v -1.396145 2.058767 3.000000
v -1.817811 1.571018 3.000000
v -2.000000 1.000000 3.000000
v 0.000000 2.486118 3.000000
v 0.751992 2.373313 3.000000
v 1.396145 2.058767 3.000000
v 1.817811 1.571018 3.000000
v 2.000000 1.000000 3.000000
v -1.000000 0.000000 3.000000
v 1.000000 0.000000 3.000000
v 0.900002 -0.300000 3.000000
v -0.900000 -0.300000 3.000000
v 1.931008 1.294354 3.000000
v 1.643680 1.835611 3.000000
v 1.091651 2.238518 3.000000
v 0.384286 2.457644 3.000000
v -0.384286 2.457644 3.000000
v -1.091651 2.238518 3.000000
v -1.643680 1.835611 3.000000
v -1.931008 1.294354 3.000000
v 3.000000 0.000000 -2.000000
v 3.000000 2.486118 0.000000
v 3.000000 2.373313 -0.751992
v 3.000000 2.058767 -1.396145
v 3.000000 1.571018 -1.817811
v 3.000000 1.000000 -2.000000
v 3.000000 2.373313 0.751992
v 3.000000 2.058767 1.396145
v 3.000000 1.571018 1.817811
v 3.000000 1.000000 2.000000
v 3.000000 0.000000 -1.000000
v 3.000000 -0.300000 0.000000
v 3.000000 0.000000 1.000000
v 3.000000 -0.300000 0.900002
v 3.000000 -0.300000 -0.900000
v 3.000000 1.294354 1.931008
v 3.000000 1.835611 1.643680
v 3.000000 2.238517 1.091651
v 3.000000 2.457644 0.384286
v 3.000000 2.457644 -0.384286
v 3.000000 2.238517 -1.091651
v 3.000000 1.835611 -1.643679
v 3.000000 1.294354 -1.931008
v -3.000000 0.000000 -2.000000
v -3.000000 2.373313 -0.751992
v -3.000000 2.058767 -1.396145
v -3.000000 1.571018 -1.817811
v -3.000000 1.000000 -2.000000
v -3.000000 2.486118 -0.000000
v -3.000000 2.373313 0.751992
v -3.000000 2.058767 1.396145
v -3.000000 1.571018 1.817811
v -3.000000 1.000000 2.000000
v -3.000000 0.000000 -1.000000
v -3.000000 -0.300000 -0.000000
v -3.000000 0.000000 1.000000
v -3.000000 -0.300000 0.900002
v -3.000000 -0.300000 -0.900001
v -3.000000 1.294354 1.931008
v -3.000000 1.835611 1.643679
v -3.000000 2.238517 1.091651
v -3.000000 2.457644 0.384286
v -3.000000 2.457644 -0.384286
v -3.000000 2.238517 -1.091651
v -3.000000 1.835611 -1.643680
v -3.000000 1.294354 -1.931008
v -3.000000 0.000000 2.000000
v 3.000000 0.000000 2.000000
v -2.000000 0.000000 2.000000
v -2.000000 1.000000 2.000000
v 0.000000 1.294354 -1.931008
v -1.931008 1.294354 1.931008
v -1.817811 1.571018 1.817811
v 0.000000 1.571018 -1.817811
v 0.000000 1.835611 -1.643680
v -1.643680 1.835611 1.643679
v -1.396145 2.058767 1.396145
v 0.000000 2.238518 -1.091651
v -1.091652 2.238517 1.091651
v -0.384286 2.457644 0.384286
v 0.000000 2.457644 -0.384286
v 0.000000 2.486118 0.000000
v -0.751993 2.373313 0.751992
v 0.384286 2.457644 0.384286
v 0.751993 2.373313 0.751992
v 0.000000 2.373313 -0.751991
v 1.643680 1.835611 1.643680
v 1.396145 2.058767 1.396145
v 0.000000 2.058767 -1.396145
v 1.931008 1.294354 1.931008
v 1.817811 1.571018 1.817811
v -1.000000 0.000000 1.000000
v 0.000000 0.000000 -1.000000
v -0.900000 -0.300000 0.900002
v 0.900002 -0.300000 0.900002
v 1.000000 0.000000 1.000000
v 2.000000 1.000000 2.000000
v 0.000000 1.000000 -2.000000
v 1.091652 2.238517 1.091651
v 2.000000 0.000000 2.000000
v 0.000000 0.000000 -2.000000
v 0.000000 -0.300000 -0.900000
v 0.000000 -0.300000 0.000001
v 0.000001 -0.300000 3.000000
v -2.000000 0.000000 3.000000
v 2.000000 0.000000 3.000000
vn 0.9736 -0.2282 -0.0000
vn 0.8353 -0.5497 -0.0000
vn 0.5084 -0.8611 -0.0000
vn 0.2235 -0.9747 -0.0000
vn 0.0739 -0.9973 -0.0000
vn 0.3689 -0.9295 -0.0000
vn 0.6696 -0.7427 -0.0000
vn 0.9255 -0.3787 -0.0000
vn -0.0739 -0.9973 -0.0000
vn -0.3689 -0.9295 -0.0000
vn -0.6696 -0.7427 -0.0000
vn -0.9255 -0.3787 -0.0000
vn -0.9487 0.3162 -0.0000
vn -0.9736 -0.2282 -0.0000
vn -0.8353 -0.5497 -0.0000
vn -0.5084 -0.8611 -0.0000
vn -0.2235 -0.9747 -0.0000
vn 0.9487 0.3162 -0.0000
vn -0.0000 -0.0000 1.0000
vn -0.0000 -0.2282 0.9736
vn -0.0000 -0.5497 0.8353
vn -0.0000 -0.8611 0.5084
vn -0.0000 -0.9747 0.2235
vn -0.0000 -0.9973 0.0739
vn -0.0000 -0.9295 0.3689
vn -0.0000 -0.7427 0.6696
vn -0.0000 -0.3787 0.9255
vn -0.0000 -0.9973 -0.0739
vn -0.0000 -0.9295 -0.3689
vn -0.0000 -0.7427 -0.6696
vn -0.0000 -0.3787 -0.9255
vn -0.0000 0.3162 0.9487
vn -0.0000 0.3162 -0.9487
vn -0.0000 -0.2282 -0.9736
vn -0.0000 -0.5497 -0.8353
vn -0.0000 -0.8611 -0.5084
vn -0.0000 -0.9747 -0.2235
vn -0.0000 -0.0000 -1.0000
vn -0.0000 1.0000 -0.0000
vn 1.0000 -0.0000 -0.0000
vn -1.0000 -0.0000 -0.0000
vt 0.523918 0.062500
vt 0.500000 0.072917
vt 0.523918 0.073635
vt 0.586418 0.062500
vt 0.547835 0.074814
vt 0.586418 0.076628
vt 0.836418 0.687500
vt 0.875000 0.670793
vt 0.836418 0.667621
vt 0.773918 0.687500
vt 0.797835 0.664083
vt 0.773918 0.660253
vt 0.750000 0.687500
vt 0.750000 0.656250
vt 0.797835 0.687500
vt 0.836418 0.667621
vt 0.797835 0.664083
vt 0.625000 0.062500
vt 0.625000 0.079207
vt 0.547835 0.062500
vt 0.547835 0.074814
vt 0.726082 0.660253
vt 0.726082 0.687500
vt 0.702165 0.687500
vt 0.663582 0.667621
vt 0.663582 0.687500
vt 0.625000 0.687500
vt 0.586418 0.673372
vt 0.586418 0.687500
vt 0.547835 0.687500
vt 0.523918 0.676365
vt 0.523918 0.687500
vt 0.000000 0.000000
vt 0.312500 0.645833
vt 0.296875 0.646875
vt 0.500000 0.677083
vt 0.500000 0.687500
vt 0.547835 0.675186
vt 0.625000 0.670793
vt 0.702165 0.664083
vt 0.312500 0.666667
vt 0.500000 0.125000
vt 0.375000 0.114583
vt 0.375000 0.125000
vt 0.375000 0.062500
vt 0.500000 0.062500
vt 0.500000 0.114583
vt 0.523918 0.125000
vt 0.523918 0.113865
vt 0.547835 0.125000
vt 0.586418 0.110872
vt 0.547835 0.112686
vt 0.836418 0.625000
vt 0.875000 0.641707
vt 0.875000 0.625000
vt 0.797835 0.648417
vt 0.773918 0.625000
vt 0.773918 0.652247
vt 0.750000 0.625000
vt 0.773918 0.652247
vt 0.836418 0.644879
vt 0.797835 0.625000
vt 0.625000 0.125000
vt 0.586418 0.110872
vt 0.586418 0.125000
vt 0.586418 0.076628
vt 0.726082 0.652247
vt 0.702165 0.625000
vt 0.663582 0.644879
vt 0.702165 0.648417
vt 0.625000 0.625000
vt 0.586418 0.639128
vt 0.625000 0.641707
vt 0.547835 0.625000
vt 0.523918 0.636135
vt 0.547835 0.637314
vt 0.203125 0.646875
vt 0.187500 0.625000
vt 0.187500 0.645833
vt 0.203125 0.687500
vt 0.187500 0.666667
vt 0.187500 0.687500
vt 0.296875 0.625000
vt 0.312500 0.625000
vt 0.296875 0.687500
vt 0.312500 0.687500
vt 0.523918 0.625000
vt 0.500000 0.635417
vt 0.586418 0.625000
vt 0.547835 0.637314
vt 0.663582 0.625000
vt 0.726082 0.625000
vt 0.726082 0.652247
vt 0.500000 0.625000
vt 0.375000 0.635417
vt 0.375000 0.687500
vt 0.375000 0.677083
vt 0.203125 0.665625
vt 0.375000 0.072917
vt 0.875000 0.687500
vt 0.726082 0.660253
vt 0.296875 0.665625
vt 0.500000 0.072917
vt 0.625000 0.108293
vt 0.702165 0.664083
vt 0.203125 0.625000
vt 0.726082 0.660253
vt 0.375000 0.625000
s 0
f 21/1/1 71/2/1 73/3/1
f 20/4/2 74/5/2 77/6/2
f 19/7/3 78/8/3 80/9/3
f 18/10/4 84/11/4 81/12/4
f 5/13/5 81/12/5 83/14/5
f 1/15/6 80/16/6 84/17/6
f 2/18/7 77/6/7 78/19/7
f 3/20/8 73/3/8 74/21/8
f 5/13/9 85/22/9 17/23/9
f 6/24/10 100/25/10 16/26/10
f 7/27/11 88/28/11 15/29/11
f 8/30/12 91/31/12 14/32/12
f 12/33/13 97/34/13 96/35/13
f 14/32/14 98/36/14 9/37/14
f 15/29/15 92/38/15 8/30/15
f 16/26/16 89/39/16 7/27/16
f 17/23/17 86/40/17 6/24/17
f 13/33/18 93/41/18 10/33/18
f 27/42/19 102/43/19 22/44/19
f 45/45/19 99/2/19 49/46/19
f 99/47/20 44/48/20 72/49/20
f 49/46/20 72/3/20 67/1/20
f 26/50/21 76/51/21 75/52/21
f 48/20/21 76/6/21 66/4/21
f 42/53/22 90/54/22 25/55/22
f 65/7/22 90/8/22 79/9/22
f 87/56/23 41/57/23 82/58/23
f 64/10/23 87/11/23 82/12/23
f 23/59/24 82/60/24 41/57/24
f 50/13/24 82/12/24 83/14/24
f 79/61/25 24/62/25 87/56/25
f 46/15/25 79/9/25 87/17/25
f 25/63/26 76/64/26 43/65/26
f 47/18/26 76/66/26 90/19/26
f 44/48/27 75/52/27 72/49/27
f 67/1/27 75/21/27 48/20/27
f 23/59/28 85/67/28 83/14/28
f 50/13/28 81/22/28 63/23/28
f 28/68/29 100/69/29 86/70/29
f 51/24/29 80/25/29 62/26/29
f 29/71/30 88/72/30 89/73/30
f 52/27/30 77/28/30 61/29/30
f 30/74/31 91/75/31 92/76/31
f 53/30/31 73/31/31 60/32/31
f 103/77/32 32/78/32 94/79/32
f 59/80/32 94/81/32 55/82/32
f 35/83/33 97/34/33 34/84/33
f 93/41/33 58/85/33 57/86/33
f 37/87/34 98/88/34 91/75/34
f 60/32/34 71/36/34 54/37/34
f 38/89/35 92/90/35 88/72/35
f 61/29/35 74/38/35 53/30/35
f 39/91/36 89/73/36 100/69/36
f 62/26/36 78/39/36 52/27/36
f 40/92/37 86/70/37 85/93/37
f 63/23/37 84/40/37 51/24/37
f 31/94/38 101/95/38 98/88/38
f 68/96/38 71/36/38 70/97/38
f 33/33/39 103/77/39 104/33/39
f 33/33/39 96/33/39 35/83/39
f 103/98/39 56/33/39 104/33/39
f 56/33/39 95/33/39 104/33/39
f 105/33/39 95/33/39 13/33/39
f 96/33/39 105/33/39 12/33/39
f 102/99/39 55/82/39 94/81/39
f 70/97/40 4/46/40 106/33/40
f 98/36/41 107/33/41 9/37/41
f 10/33/39 70/97/39 106/33/39
f 57/86/39 70/97/39 93/41/39
f 94/79/39 22/44/39 102/43/39
f 11/33/39 101/95/39 97/34/39
f 101/95/39 34/84/39 97/34/39
f 21/1/1 4/46/1 71/2/1
f 20/4/2 3/20/2 74/5/2
f 19/7/3 2/100/3 78/8/3
f 18/10/4 1/15/4 84/11/4
f 5/13/5 18/10/5 81/12/5
f 1/15/6 19/7/6 80/16/6
f 2/18/7 20/4/7 77/6/7
f 3/20/8 21/1/8 73/3/8
f 5/13/9 83/14/9 85/22/9
f 6/24/10 86/40/10 100/25/10
f 7/27/11 89/39/11 88/28/11
f 8/30/12 92/38/12 91/31/12
f 12/33/13 11/33/13 97/34/13
f 14/32/14 91/31/14 98/36/14
f 15/29/15 88/28/15 92/38/15
f 16/26/16 100/25/16 89/39/16
f 17/23/17 85/101/17 86/40/17
f 13/33/18 95/102/18 93/41/18
f 27/42/19 99/47/19 102/43/19
f 45/45/19 102/99/19 99/2/19
f 99/47/20 27/42/20 44/48/20
f 49/46/20 99/103/20 72/3/20
f 26/50/21 43/65/21 76/51/21
f 48/20/21 75/5/21 76/6/21
f 42/53/22 79/61/22 90/54/22
f 65/7/22 47/100/22 90/8/22
f 87/56/23 24/62/23 41/57/23
f 64/10/23 46/15/23 87/11/23
f 23/59/24 83/14/24 82/60/24
f 50/13/24 64/10/24 82/12/24
f 79/61/25 42/53/25 24/62/25
f 46/15/25 65/7/25 79/9/25
f 25/63/26 90/104/26 76/64/26
f 47/18/26 66/4/26 76/66/26
f 44/48/27 26/50/27 75/52/27
f 67/1/27 72/3/27 75/21/27
f 23/59/28 40/92/28 85/67/28
f 50/13/28 83/14/28 81/22/28
f 28/68/29 39/91/29 100/69/29
f 51/24/29 84/105/29 80/25/29
f 29/71/30 38/89/30 88/72/30
f 52/27/30 78/39/30 77/28/30
f 30/74/31 37/87/31 91/75/31
f 53/30/31 74/38/31 73/31/31
f 103/77/32 36/106/32 32/78/32
f 59/80/32 103/98/32 94/81/32
f 35/83/33 96/35/33 97/34/33
f 93/41/33 95/102/33 58/85/33
f 37/87/34 31/94/34 98/88/34
f 60/32/34 73/31/34 71/36/34
f 38/89/35 30/74/35 92/90/35
f 61/29/35 77/28/35 74/38/35
f 39/91/36 29/71/36 89/73/36
f 62/26/36 80/25/36 78/39/36
f 40/92/37 28/68/37 86/70/37
f 63/23/37 81/107/37 84/40/37
f 31/94/38 69/108/38 101/95/38
f 68/96/38 54/37/38 71/36/38
f 33/33/39 36/106/39 103/77/39
f 33/33/39 104/33/39 96/33/39
f 103/98/39 59/80/39 56/33/39
f 56/33/39 58/85/39 95/33/39
f 105/33/39 104/33/39 95/33/39
f 96/33/39 104/33/39 105/33/39
f 102/99/39 45/45/39 55/82/39
f 70/97/40 71/2/40 4/46/40
f 98/36/41 101/95/41 107/33/41
f 10/33/39 93/41/39 70/97/39
f 57/86/39 68/96/39 70/97/39
f 94/79/39 32/78/39 22/44/39
f 11/33/39 107/33/39 101/95/39
f 101/95/39 69/108/39 34/84/39
