# Blender 4.0.2
# www.blender.org
o pipe_turn_45
v -0.707107 0.853553 -0.707107
v -0.957107 -0.000000 -0.457107
v -0.707107 0.000000 -0.707107
v -0.457107 0.707107 -0.957107
v 0.000000 0.853553 1.000000
v -0.353553 0.707107 1.000000
v -0.500000 0.353553 1.000000
v -0.353553 0.000000 1.000000
v 0.000000 0.000000 1.000000
v 0.353553 0.000000 1.000000
v 0.500000 0.353553 1.000000
v 0.353553 0.707107 1.000000
v -0.046388 0.853553 0.529010
v -0.393148 0.707107 0.597985
v -0.536781 0.353553 0.626555
v -0.393148 0.000000 0.597985
v -0.046388 0.000000 0.529010
v 0.300372 0.000000 0.460035
v 0.444004 0.353553 0.431465
v 0.300372 0.707107 0.460035
v -0.183771 0.853553 0.076120
v -0.510412 0.707107 0.211419
v -0.645711 0.353553 0.267462
v -0.510412 0.000000 0.211419
v -0.183771 0.000000 0.076120
v 0.142870 0.000000 -0.059179
v 0.278169 0.353553 -0.115221
v 0.142870 0.707107 -0.059179
v -0.406868 0.853553 -0.341265
v -0.700837 0.707107 -0.144842
v -0.822603 0.353553 -0.063480
v -0.700837 0.000000 -0.144842
v -0.406868 0.000000 -0.341265
v -0.112899 0.000000 -0.537689
v 0.008867 0.353553 -0.619051
v -0.112899 0.707107 -0.537689
v -0.957107 0.707107 -0.457107
v -1.060660 0.353553 -0.353554
v -0.457107 0.000000 -0.957107
v -0.353553 0.353553 -1.060661
vn 0.9201 -0.3811 -0.0906
vn -0.9201 -0.3811 0.0906
vn -0.0000 1.0000 -0.0000
vn 0.9201 0.3811 -0.0906
vn 0.3824 -0.9232 -0.0377
vn -0.3824 -0.9232 0.0377
vn -0.9201 0.3811 0.0906
vn 0.8847 0.3811 -0.2684
vn 0.3677 -0.9232 -0.1115
vn -0.3677 -0.9232 0.1115
vn -0.8847 0.3811 0.2684
vn 0.8847 -0.3811 -0.2684
vn -0.8847 -0.3811 0.2684
vn -0.8154 -0.3811 0.4358
vn 0.8154 0.3811 -0.4358
vn 0.3389 -0.9232 -0.1811
vn -0.3389 -0.9232 0.1811
vn -0.8154 0.3811 0.4358
vn 0.8154 -0.3811 -0.4358
vn -0.7147 0.3811 0.5865
vn 0.7147 -0.3811 -0.5865
vn -0.7147 -0.3811 0.5865
vn 0.7147 0.3811 -0.5865
vn 0.2970 -0.9232 -0.2438
vn -0.2970 -0.9232 0.2438
vt 0.000000 0.000000
s 0
f 7/1/1 14/1/1 6/1/1
f 20/1/2 11/1/2 12/1/2
f 10/1/3 17/1/3 9/1/3
f 8/1/4 15/1/4 7/1/4
f 14/1/5 5/1/5 6/1/5
f 13/1/6 12/1/6 5/1/6
f 19/1/7 10/1/7 11/1/7
f 9/1/3 16/1/3 8/1/3
f 18/1/3 25/1/3 17/1/3
f 16/1/8 23/1/8 15/1/8
f 22/1/9 13/1/9 14/1/9
f 21/1/10 20/1/10 13/1/10
f 27/1/11 18/1/11 19/1/11
f 25/1/3 16/1/3 17/1/3
f 15/1/12 22/1/12 14/1/12
f 28/1/13 19/1/13 20/1/13
f 28/1/14 35/1/14 27/1/14
f 26/1/3 33/1/3 25/1/3
f 32/1/15 23/1/15 24/1/15
f 22/1/16 29/1/16 21/1/16
f 29/1/17 28/1/17 21/1/17
f 35/1/18 26/1/18 27/1/18
f 33/1/3 24/1/3 25/1/3
f 23/1/19 30/1/19 22/1/19
f 40/1/20 34/1/20 35/1/20
f 3/1/3 32/1/3 33/1/3
f 31/1/21 37/1/21 30/1/21
f 4/1/22 35/1/22 36/1/22
f 34/1/3 3/1/3 33/1/3
f 2/1/23 31/1/23 32/1/23
f 30/1/24 1/1/24 29/1/24
f 29/1/25 4/1/25 36/1/25
f 7/1/1 15/1/1 14/1/1
f 20/1/2 19/1/2 11/1/2
f 10/1/3 18/1/3 17/1/3
f 8/1/4 16/1/4 15/1/4
f 14/1/5 13/1/5 5/1/5
f 13/1/6 20/1/6 12/1/6
f 19/1/7 18/1/7 10/1/7
f 9/1/3 17/1/3 16/1/3
f 18/1/3 26/1/3 25/1/3
f 16/1/8 24/1/8 23/1/8
f 22/1/9 21/1/9 13/1/9
f 21/1/10 28/1/10 20/1/10
f 27/1/11 26/1/11 18/1/11
f 25/1/3 24/1/3 16/1/3
f 15/1/12 23/1/12 22/1/12
f 28/1/13 27/1/13 19/1/13
f 28/1/14 36/1/14 35/1/14
f 26/1/3 34/1/3 33/1/3
f 32/1/15 31/1/15 23/1/15
f 22/1/16 30/1/16 29/1/16
f 29/1/17 36/1/17 28/1/17
f 35/1/18 34/1/18 26/1/18
f 33/1/3 32/1/3 24/1/3
f 23/1/19 31/1/19 30/1/19
f 40/1/20 39/1/20 34/1/20
f 3/1/3 2/1/3 32/1/3
f 31/1/21 38/1/21 37/1/21
f 4/1/22 40/1/22 35/1/22
f 34/1/3 39/1/3 3/1/3
f 2/1/23 38/1/23 31/1/23
f 30/1/24 37/1/24 1/1/24
f 29/1/25 1/1/25 4/1/25
