# Blender 4.0.2
# www.blender.org
o small_tunnel_turn_X
v -1.000000 0.000000 2.000000
v -1.000000 0.000000 -2.000000
v 1.000000 0.000000 2.000000
v 1.000000 0.000000 -2.000000
v -0.000000 2.000000 2.000000
v -1.000000 1.000000 2.000000
v -0.382683 1.923880 2.000000
v -0.707107 1.707107 2.000000
v -0.923879 1.382683 2.000000
v -1.000000 1.000000 -2.000000
v -0.000000 2.000000 -2.000000
v -0.923879 1.382683 -2.000000
v -0.707107 1.707107 -2.000000
v -0.382683 1.923880 -2.000000
v 1.000000 1.000000 2.000000
v 0.923879 1.382683 2.000000
v 0.707107 1.707107 2.000000
v 0.382683 1.923880 2.000000
v 1.000000 1.000000 -2.000000
v 0.382683 1.923880 -2.000000
v 0.707107 1.707107 -2.000000
v 0.923879 1.382683 -2.000000
v 0.500000 0.000000 -2.000000
v 0.000000 -0.300000 -2.000000
v -0.500000 0.000000 -2.000000
v -0.500000 0.000000 2.000000
v 0.000000 -0.300000 2.000000
v 0.500000 0.000000 2.000000
v 0.400000 -0.300000 -2.000000
v 0.400000 -0.300000 2.000000
v -0.400000 -0.300000 -2.000000
v -0.400000 -0.300000 2.000000
v 2.000000 0.000000 1.000000
v -2.000000 0.000000 1.000000
v 2.000000 0.000000 -1.000000
v -2.000000 0.000000 -1.000000
v 2.000000 2.000000 -0.000000
v 2.000000 1.000000 1.000000
v 2.000000 1.923880 0.382683
v 2.000000 1.707107 0.707107
v 2.000000 1.382683 0.923879
v -2.000000 1.000000 1.000000
v -2.000000 2.000000 0.000000
v -2.000000 1.382683 0.923880
v -2.000000 1.707107 0.707107
v -2.000000 1.923880 0.382683
v 2.000000 1.000000 -1.000000
v 2.000000 1.382683 -0.923880
v 2.000000 1.707107 -0.707107
v 2.000000 1.923880 -0.382683
v -2.000000 1.000000 -1.000000
v -2.000000 1.923880 -0.382683
v -2.000000 1.707107 -0.707107
v -2.000000 1.382683 -0.923879
v -2.000000 0.000000 -0.500000
v -2.000000 -0.300000 0.000000
v -2.000000 0.000000 0.500000
v 2.000000 0.000000 0.500000
v 2.000000 -0.300000 -0.000000
v 2.000000 0.000000 -0.500000
v -2.000000 -0.300000 -0.400000
v 2.000000 -0.300000 -0.400000
v -2.000000 -0.300000 0.400000
v 2.000000 -0.300000 0.400000
v 1.000000 0.000000 1.000000
v 1.000000 0.000000 -1.000000
v 0.500000 0.000000 -0.500000
v 1.000000 1.000000 1.000000
v 1.000000 1.000000 -1.000000
v -0.382683 1.923880 0.382683
v -0.382683 1.923880 -0.382683
v -0.000000 2.000000 0.000000
v -0.707107 1.707107 0.707107
v -0.707107 1.707107 -0.707107
v -0.923879 1.382683 0.923879
v -0.923879 1.382683 -0.923879
v -1.000000 1.000000 1.000000
v -1.000000 1.000000 -1.000000
v 0.382683 1.923880 0.382683
v 0.382683 1.923880 -0.382683
v 0.707107 1.707107 0.707107
v 0.707107 1.707107 -0.707107
v 0.923879 1.382683 0.923879
v 0.923879 1.382683 -0.923879
v -1.000000 0.000000 1.000000
v -0.500000 0.000000 0.500000
v -1.000000 0.000000 -1.000000
v 0.400000 -0.300000 0.400000
v 0.400000 -0.300000 -0.400000
v 0.000000 -0.300000 0.000000
v 0.500000 0.000000 0.500000
v -0.500000 0.000000 -0.500000
v -0.400000 -0.300000 0.400000
v -0.400000 -0.300000 -0.400000
vn -0.0000 1.0000 -0.0000
vn -1.0000 -0.0000 -0.0000
vn 0.1951 -0.9808 -0.0000
vn 0.5556 -0.8315 -0.0000
vn 0.8315 -0.5556 -0.0000
vn 0.9808 -0.1951 -0.0000
vn -0.1951 -0.9808 -0.0000
vn -0.5556 -0.8315 -0.0000
vn -0.8315 -0.5556 -0.0000
vn -0.9808 -0.1951 -0.0000
vn 1.0000 -0.0000 -0.0000
vn -0.9487 0.3162 -0.0000
vn 0.9487 0.3162 -0.0000
vn -0.0000 -0.0000 1.0000
vn -0.0000 -0.9808 -0.1951
vn -0.0000 -0.8315 -0.5556
vn -0.0000 -0.5556 -0.8315
vn -0.0000 -0.1951 -0.9808
vn -0.0000 -0.9808 0.1951
vn -0.0000 -0.8315 0.5556
vn -0.0000 -0.5556 0.8315
vn -0.0000 -0.1951 0.9808
vn -0.0000 -0.0000 -1.0000
vn -0.0000 0.3162 0.9487
vn -0.0000 0.3162 -0.9487
vt 0.375000 0.562500
vt 0.312500 0.500000
vt 0.312500 0.593750
vt 0.312500 0.750000
vt 0.375000 0.687500
vt 0.312500 0.656250
vt 0.500000 0.500000
vt 0.500000 0.562500
vt 0.500000 0.750000
vt 0.375000 0.750000
vt 0.750000 0.500000
vt 0.797835 0.601082
vt 0.797835 0.500000
vt 0.750000 0.750000
vt 0.797835 0.648918
vt 0.750000 0.625000
vt 0.875000 0.580806
vt 0.875000 0.500000
vt 0.797835 0.750000
vt 0.875000 0.669194
vt 0.797835 0.648918
vt 0.547835 0.182742
vt 0.625000 0.250000
vt 0.625000 0.169194
vt 0.625000 0.000000
vt 0.547835 0.067258
vt 0.625000 0.080806
vt 0.500000 0.187500
vt 0.547835 0.250000
vt 0.547835 0.000000
vt 0.500000 0.062500
vt 0.702165 0.601082
vt 0.702165 0.648918
vt 0.702165 0.750000
vt 0.702165 0.500000
vt 0.625000 0.580806
vt 0.702165 0.601082
vt 0.625000 0.669194
vt 0.625000 0.750000
vt 0.625000 0.500000
vt 0.547835 0.567258
vt 0.625000 0.580806
vt 0.547835 0.682742
vt 0.547835 0.750000
vt 0.547835 0.500000
vt 0.500000 0.687500
vt 0.375000 0.250000
vt 0.375000 0.187500
vt 0.375000 0.000000
vt 0.500000 0.062500
vt 0.500000 0.000000
vt 0.187500 0.500000
vt 0.125000 0.562500
vt 0.187500 0.593750
vt 0.125000 0.687500
vt 0.187500 0.750000
vt 0.187500 0.656250
vt 0.296875 0.500000
vt 0.296875 0.600000
vt 0.296875 0.750000
vt 0.296875 0.650000
vt 0.250000 0.500000
vt 0.250000 0.625000
vt 0.250000 0.750000
vt 0.296875 0.650000
vt 0.203125 0.500000
vt 0.203125 0.750000
vt 0.203125 0.650000
vt 0.203125 0.600000
vt 0.375000 0.500000
vt 0.500000 0.250000
vt 0.375000 0.062500
vt 0.187500 0.656250
vt 0.250000 0.631832
vt 0.203125 0.650000
vt 0.250000 0.618168
vt 0.797835 0.601082
vt 0.875000 0.750000
vt 0.375000 0.062500
vt 0.125000 0.500000
vt 0.125000 0.750000
vt 0.547835 0.182742
s 0
f 66/1/1 23/2/1 67/3/1
f 28/4/1 65/5/1 91/6/1
f 19/7/2 66/1/2 69/8/2
f 15/9/2 65/5/2 3/10/2
f 11/11/3 71/12/3 14/13/3
f 5/14/3 70/15/3 72/16/3
f 14/13/4 74/17/4 13/18/4
f 7/19/4 73/20/4 70/21/4
f 76/22/5 13/23/5 74/24/5
f 8/25/5 75/26/5 73/27/5
f 78/28/6 12/29/6 76/22/6
f 9/30/6 77/31/6 75/26/6
f 11/11/7 80/32/7 72/16/7
f 5/14/7 79/33/7 18/34/7
f 20/35/8 82/36/8 80/37/8
f 18/34/8 81/38/8 17/39/8
f 21/40/9 84/41/9 82/42/9
f 17/39/9 83/43/9 16/44/9
f 22/45/10 69/8/10 84/41/10
f 16/44/10 68/46/10 15/9/10
f 2/47/11 78/28/11 87/48/11
f 1/49/11 77/50/11 6/51/11
f 25/52/1 87/53/1 92/54/1
f 85/55/1 26/56/1 86/57/1
f 67/3/12 29/58/12 89/59/12
f 30/60/12 91/6/12 88/61/12
f 89/59/1 24/62/1 90/63/1
f 27/64/1 88/65/1 90/63/1
f 92/54/13 31/66/13 25/52/13
f 86/57/13 32/67/13 93/68/13
f 24/62/1 94/69/1 90/63/1
f 93/68/1 27/64/1 90/63/1
f 87/1/1 55/2/1 92/3/1
f 60/4/1 66/5/1 67/6/1
f 36/70/14 78/8/14 51/7/14
f 35/10/14 69/46/14 66/5/14
f 43/11/15 70/12/15 46/13/15
f 37/14/15 79/15/15 72/16/15
f 46/13/16 73/17/16 45/18/16
f 39/19/16 81/20/16 79/21/16
f 45/23/17 75/22/17 44/29/17
f 40/25/17 83/26/17 81/27/17
f 44/29/18 77/28/18 42/71/18
f 41/30/18 68/50/18 83/26/18
f 43/11/19 71/32/19 72/16/19
f 37/14/19 80/33/19 50/34/19
f 52/35/20 74/36/20 71/37/20
f 50/34/20 82/38/20 49/39/20
f 53/40/21 76/41/21 74/42/21
f 84/43/21 49/39/21 82/38/21
f 54/45/22 78/8/22 76/41/22
f 69/46/22 48/44/22 84/43/22
f 42/71/23 85/48/23 34/47/23
f 38/51/23 65/72/23 68/50/23
f 57/52/1 85/53/1 86/54/1
f 65/55/1 58/56/1 91/73/1
f 92/3/24 61/58/24 94/59/24
f 67/6/24 62/60/24 60/4/24
f 94/59/1 56/62/1 90/74/1
f 89/65/1 59/64/1 62/60/1
f 63/66/25 86/54/25 93/69/25
f 91/73/25 64/67/25 88/75/25
f 93/69/1 56/62/1 63/66/1
f 88/68/1 59/64/1 90/76/1
f 66/1/1 4/70/1 23/2/1
f 28/4/1 3/10/1 65/5/1
f 19/7/2 4/70/2 66/1/2
f 15/9/2 68/46/2 65/5/2
f 11/11/3 72/16/3 71/12/3
f 5/14/3 7/19/3 70/15/3
f 14/13/4 71/77/4 74/17/4
f 7/19/4 8/78/4 73/20/4
f 76/22/5 12/29/5 13/23/5
f 8/25/5 9/30/5 75/26/5
f 78/28/6 10/71/6 12/29/6
f 9/30/6 6/51/6 77/31/6
f 11/11/7 20/35/7 80/32/7
f 5/14/7 72/16/7 79/33/7
f 20/35/8 21/40/8 82/36/8
f 18/34/8 79/33/8 81/38/8
f 21/40/9 22/45/9 84/41/9
f 17/39/9 81/38/9 83/43/9
f 22/45/10 19/7/10 69/8/10
f 16/44/10 83/43/10 68/46/10
f 2/47/11 10/71/11 78/28/11
f 1/49/11 85/79/11 77/50/11
f 25/52/1 2/80/1 87/53/1
f 85/55/1 1/81/1 26/56/1
f 67/3/12 23/2/12 29/58/12
f 30/60/12 28/4/12 91/6/12
f 89/59/1 29/58/1 24/62/1
f 27/64/1 30/60/1 88/65/1
f 92/54/13 94/69/13 31/66/13
f 86/57/13 26/56/13 32/67/13
f 24/62/1 31/66/1 94/69/1
f 93/68/1 32/67/1 27/64/1
f 87/1/1 36/70/1 55/2/1
f 60/4/1 35/10/1 66/5/1
f 36/70/14 87/1/14 78/8/14
f 35/10/14 47/9/14 69/46/14
f 43/11/15 72/16/15 70/12/15
f 37/14/15 39/19/15 79/15/15
f 46/13/16 70/77/16 73/17/16
f 39/19/16 40/78/16 81/20/16
f 45/23/17 73/24/17 75/22/17
f 40/25/17 41/30/17 83/26/17
f 44/29/18 75/82/18 77/28/18
f 41/30/18 38/51/18 68/50/18
f 43/11/19 52/35/19 71/32/19
f 37/14/19 72/16/19 80/33/19
f 52/35/20 53/40/20 74/36/20
f 50/34/20 80/33/20 82/38/20
f 53/40/21 54/45/21 76/41/21
f 84/43/21 48/44/21 49/39/21
f 54/45/22 51/7/22 78/8/22
f 69/46/22 47/9/22 48/44/22
f 42/71/23 77/28/23 85/48/23
f 38/51/23 33/49/23 65/72/23
f 57/52/1 34/80/1 85/53/1
f 65/55/1 33/81/1 58/56/1
f 92/3/24 55/2/24 61/58/24
f 67/6/24 89/61/24 62/60/24
f 94/59/1 61/58/1 56/62/1
f 89/65/1 90/76/1 59/64/1
f 63/66/25 57/52/25 86/54/25
f 91/73/25 58/56/25 64/67/25
f 93/69/1 90/74/1 56/62/1
f 88/68/1 64/67/1 59/64/1
