# Blender 4.0.2
# www.blender.org
o small_tunnel_turn_30b
v -1.000000 0.000000 2.000000
v 1.000000 0.000000 2.000000
v -0.000000 2.000000 2.000000
v -1.000000 1.000000 2.000000
v -0.382683 1.923880 2.000000
v -0.707107 1.707107 2.000000
v -0.923879 1.382683 2.000000
v 1.000000 1.000000 2.000000
v 0.923879 1.382683 2.000000
v 0.707107 1.707107 2.000000
v 0.382683 1.923880 2.000000
v -0.500000 0.000000 2.000000
v 0.000000 -0.300000 2.000000
v 0.500000 0.000000 2.000000
v 0.400000 -0.300000 2.000000
v -0.400000 -0.300000 2.000000
v -1.346410 -0.300000 -1.532051
v -0.566987 0.000000 -1.982051
v -1.000000 -0.300000 -1.732051
v -0.668586 1.923880 -1.923393
v -0.199897 1.382683 -2.193990
v -1.612372 1.707107 -1.378497
v -1.331414 1.923880 -1.540709
v -0.133975 0.000000 -2.232051
v -1.055301 0.000000 1.156266
v 0.927589 0.000000 0.895213
v -0.063856 2.000000 1.025739
v -1.055301 1.000000 1.156266
v -0.443265 1.923880 1.075690
v -0.764913 1.707107 1.118035
v -0.979831 1.382683 1.146330
v 0.927589 1.000000 0.895213
v 0.852120 1.382683 0.905149
v 0.637201 1.707107 0.933443
v 0.315554 1.923880 0.975789
v -0.559578 0.000000 1.091003
v -0.063856 -0.300000 1.025739
v 0.431867 0.000000 0.960476
v 0.332722 -0.300000 0.973529
v -0.460434 -0.300000 1.077950
v -1.220258 0.000000 0.326968
v 0.711594 0.000000 -0.190670
v -0.254332 2.000000 0.068149
v -1.220258 1.000000 0.326968
v -0.623976 1.923880 0.167194
v -0.937345 1.707107 0.251161
v -1.146731 1.382683 0.307266
v 0.711594 1.000000 -0.190670
v 0.638067 1.382683 -0.170969
v 0.428681 1.707107 -0.114864
v 0.115312 1.923880 -0.030897
v -0.737295 0.000000 0.197558
v -0.254332 -0.300000 0.068149
v 0.228631 0.000000 -0.061261
v 0.132038 -0.300000 -0.035379
v -0.640702 -0.300000 0.171676
v -1.492049 0.000000 -0.473704
v 0.355710 0.000000 -1.239071
v -0.568169 2.000000 -0.856388
v -1.492049 1.000000 -0.473704
v -0.921723 1.923880 -0.709941
v -1.221451 1.707107 -0.585790
v -1.421723 1.382683 -0.502834
v 0.355710 1.000000 -1.239071
v 0.285384 1.382683 -1.209941
v 0.085112 1.707107 -1.126986
v -0.214616 1.923880 -1.002834
v -1.030109 0.000000 -0.665046
v -0.568169 -0.300000 -0.856388
v -0.106229 0.000000 -1.047729
v -0.198617 -0.300000 -1.009461
v -0.937721 -0.300000 -0.703314
v -1.866023 0.000000 -1.232051
v -0.999998 2.000000 -1.732051
v -1.866023 1.000000 -1.232051
v -1.800101 1.382683 -1.270111
v -0.133972 1.000000 -2.232051
v -0.387625 1.707107 -2.085604
v -1.433010 0.000000 -1.482050
v -0.653588 -0.300000 -1.932051
v 0.531011 0.020000 0.947424
v 0.465748 0.020000 0.451701
v -0.013841 0.020000 -1.085998
v 0.177500 0.020000 -0.624058
v -1.122497 0.020000 -0.626778
v -0.931155 0.020000 -0.164838
v -0.013841 0.000000 -1.085998
v 0.177500 0.000000 -0.624058
v -1.122497 0.000000 -0.626778
v -0.931155 0.000000 -0.164838
v -0.658723 0.000000 1.104055
v -0.723986 0.000000 0.608333
v 0.531011 0.000000 0.947424
v 0.465748 0.000000 0.451701
v -0.658723 0.020000 1.104055
v -0.723986 0.020000 0.608333
vn -0.0000 1.0000 -0.0000
vn 0.9979 -0.0000 -0.0654
vn 0.1951 -0.9807 -0.0128
vn -0.9979 -0.0000 0.0654
vn 0.5552 -0.8309 -0.0364
vn 0.8302 -0.5547 -0.0544
vn -0.9469 0.3156 0.0621
vn 0.9788 -0.1947 -0.0642
vn -0.5552 -0.8309 0.0364
vn 0.9469 0.3156 -0.0621
vn -0.8302 -0.5547 0.0544
vn -0.1951 -0.9807 0.0128
vn -0.9788 -0.1947 0.0642
vn -0.5457 -0.8309 0.1085
vn 0.9307 0.3156 -0.1851
vn -0.8160 -0.5547 0.1623
vn -0.1917 -0.9807 0.0381
vn -0.9620 -0.1947 0.1914
vn 0.9808 -0.0000 -0.1951
vn 0.1917 -0.9807 -0.0381
vn -0.9808 -0.0000 0.1951
vn 0.5457 -0.8309 -0.1085
vn 0.8160 -0.5547 -0.1623
vn -0.9307 0.3156 0.1851
vn 0.9620 -0.1947 -0.1914
vn 0.7879 -0.5547 -0.2674
vn -0.8985 0.3156 0.3050
vn 0.9288 -0.1947 -0.3153
vn -0.5269 -0.8309 0.1788
vn 0.8985 0.3156 -0.3050
vn -0.7879 -0.5547 0.2674
vn -0.1851 -0.9807 0.0628
vn -0.9288 -0.1947 0.3153
vn 0.9469 -0.0000 -0.3214
vn 0.1851 -0.9807 -0.0628
vn -0.9469 -0.0000 0.3214
vn 0.5269 -0.8309 -0.1788
vn 0.8969 -0.0000 -0.4423
vn 0.1753 -0.9807 -0.0865
vn -0.8969 -0.0000 0.4423
vn 0.4990 -0.8309 -0.2461
vn 0.7462 -0.5547 -0.3680
vn -0.8510 0.3156 0.4197
vn 0.8797 -0.1947 -0.4338
vn -0.4990 -0.8309 0.2461
vn 0.8510 0.3156 -0.4197
vn -0.7462 -0.5547 0.3680
vn -0.1753 -0.9807 0.0865
vn -0.8797 -0.1947 0.4338
vn -0.3827 -0.0000 -0.9239
vn 0.3827 -0.0000 0.9239
vn -0.9239 -0.0000 0.3827
vn 0.9239 -0.0000 -0.3827
vn -0.0000 -1.0000 -0.0000
vn -0.9914 -0.0000 0.1305
vn 0.9914 -0.0000 -0.1305
vn -0.1305 -0.0000 -0.9914
vn 0.1305 -0.0000 0.9914
vt 0.000000 0.000000
vt 0.296875 0.500000
vt 0.203125 0.500000
vt 0.203125 0.750000
vt 0.296875 0.750000
s 0
f 2/1/1 38/1/1 14/1/1
f 25/1/2 4/1/2 1/1/2
f 29/1/3 3/1/3 5/1/3
f 32/1/4 2/1/4 8/1/4
f 30/1/5 5/1/5 6/1/5
f 12/1/1 25/1/1 1/1/1
f 31/1/6 6/1/6 7/1/6
f 14/1/7 39/1/7 15/1/7
f 4/1/8 31/1/8 7/1/8
f 15/1/1 37/1/1 13/1/1
f 35/1/9 10/1/9 11/1/9
f 16/1/10 36/1/10 12/1/10
f 34/1/11 9/1/11 10/1/11
f 27/1/12 11/1/12 3/1/12
f 13/1/1 40/1/1 16/1/1
f 33/1/13 8/1/13 9/1/13
f 51/1/14 34/1/14 35/1/14
f 40/1/15 52/1/15 36/1/15
f 50/1/16 33/1/16 34/1/16
f 43/1/17 35/1/17 27/1/17
f 37/1/1 56/1/1 40/1/1
f 49/1/18 32/1/18 33/1/18
f 26/1/1 54/1/1 38/1/1
f 41/1/19 28/1/19 25/1/19
f 45/1/20 27/1/20 29/1/20
f 48/1/21 26/1/21 32/1/21
f 46/1/22 29/1/22 30/1/22
f 36/1/1 41/1/1 25/1/1
f 47/1/23 30/1/23 31/1/23
f 38/1/24 55/1/24 39/1/24
f 28/1/25 47/1/25 31/1/25
f 39/1/1 53/1/1 37/1/1
f 52/1/1 57/1/1 41/1/1
f 63/1/26 46/1/26 47/1/26
f 54/1/27 71/1/27 55/1/27
f 44/1/28 63/1/28 47/1/28
f 55/1/1 69/1/1 53/1/1
f 67/1/29 50/1/29 51/1/29
f 56/1/30 68/1/30 52/1/30
f 66/1/31 49/1/31 50/1/31
f 59/1/32 51/1/32 43/1/32
f 53/1/1 72/1/1 56/1/1
f 65/1/33 48/1/33 49/1/33
f 42/1/1 70/1/1 54/1/1
f 57/1/34 44/1/34 41/1/34
f 61/1/35 43/1/35 45/1/35
f 64/1/36 42/1/36 48/1/36
f 62/1/37 45/1/37 46/1/37
f 70/1/1 24/1/1 18/1/1
f 73/1/38 60/1/38 57/1/38
f 61/1/39 74/1/39 59/1/39
f 77/1/40 58/1/40 64/1/40
f 62/1/41 23/1/41 61/1/41
f 68/1/1 73/1/1 57/1/1
f 76/1/42 62/1/42 63/1/42
f 70/1/43 80/1/43 71/1/43
f 60/1/44 76/1/44 63/1/44
f 69/1/1 80/1/1 19/1/1
f 67/1/45 78/1/45 66/1/45
f 72/1/46 79/1/46 68/1/46
f 78/1/47 65/1/47 66/1/47
f 74/1/48 67/1/48 59/1/48
f 72/1/1 19/1/1 17/1/1
f 65/1/49 77/1/49 64/1/49
f 83/2/50 89/3/50 85/3/50
f 90/4/51 84/5/51 86/4/51
f 85/3/52 90/4/52 86/4/52
f 84/5/53 87/2/53 83/2/53
f 87/2/54 90/4/54 89/3/54
f 96/3/55 91/4/55 95/4/55
f 81/5/56 94/2/56 82/2/56
f 82/2/57 92/3/57 96/3/57
f 91/4/58 81/5/58 95/4/58
f 86/4/1 83/2/1 85/3/1
f 93/5/54 92/3/54 94/2/54
f 81/5/1 96/3/1 95/4/1
f 2/1/1 26/1/1 38/1/1
f 25/1/2 28/1/2 4/1/2
f 29/1/3 27/1/3 3/1/3
f 32/1/4 26/1/4 2/1/4
f 30/1/5 29/1/5 5/1/5
f 12/1/1 36/1/1 25/1/1
f 31/1/6 30/1/6 6/1/6
f 14/1/7 38/1/7 39/1/7
f 4/1/8 28/1/8 31/1/8
f 15/1/1 39/1/1 37/1/1
f 35/1/9 34/1/9 10/1/9
f 16/1/10 40/1/10 36/1/10
f 34/1/11 33/1/11 9/1/11
f 27/1/12 35/1/12 11/1/12
f 13/1/1 37/1/1 40/1/1
f 33/1/13 32/1/13 8/1/13
f 51/1/14 50/1/14 34/1/14
f 40/1/15 56/1/15 52/1/15
f 50/1/16 49/1/16 33/1/16
f 43/1/17 51/1/17 35/1/17
f 37/1/1 53/1/1 56/1/1
f 49/1/18 48/1/18 32/1/18
f 26/1/1 42/1/1 54/1/1
f 41/1/19 44/1/19 28/1/19
f 45/1/20 43/1/20 27/1/20
f 48/1/21 42/1/21 26/1/21
f 46/1/22 45/1/22 29/1/22
f 36/1/1 52/1/1 41/1/1
f 47/1/23 46/1/23 30/1/23
f 38/1/24 54/1/24 55/1/24
f 28/1/25 44/1/25 47/1/25
f 39/1/1 55/1/1 53/1/1
f 52/1/1 68/1/1 57/1/1
f 63/1/26 62/1/26 46/1/26
f 54/1/27 70/1/27 71/1/27
f 44/1/28 60/1/28 63/1/28
f 55/1/1 71/1/1 69/1/1
f 67/1/29 66/1/29 50/1/29
f 56/1/30 72/1/30 68/1/30
f 66/1/31 65/1/31 49/1/31
f 59/1/32 67/1/32 51/1/32
f 53/1/1 69/1/1 72/1/1
f 65/1/33 64/1/33 48/1/33
f 42/1/1 58/1/1 70/1/1
f 57/1/34 60/1/34 44/1/34
f 61/1/35 59/1/35 43/1/35
f 64/1/36 58/1/36 42/1/36
f 62/1/37 61/1/37 45/1/37
f 70/1/1 58/1/1 24/1/1
f 73/1/38 75/1/38 60/1/38
f 61/1/39 23/1/39 74/1/39
f 77/1/40 24/1/40 58/1/40
f 62/1/41 22/1/41 23/1/41
f 68/1/1 79/1/1 73/1/1
f 76/1/42 22/1/42 62/1/42
f 70/1/43 18/1/43 80/1/43
f 60/1/44 75/1/44 76/1/44
f 69/1/1 71/1/1 80/1/1
f 67/1/45 20/1/45 78/1/45
f 72/1/46 17/1/46 79/1/46
f 78/1/47 21/1/47 65/1/47
f 74/1/48 20/1/48 67/1/48
f 72/1/1 69/1/1 19/1/1
f 65/1/49 21/1/49 77/1/49
f 83/2/50 87/2/50 89/3/50
f 90/4/51 88/5/51 84/5/51
f 85/3/52 89/3/52 90/4/52
f 84/5/53 88/5/53 87/2/53
f 87/2/54 88/5/54 90/4/54
f 96/3/55 92/3/55 91/4/55
f 81/5/56 93/5/56 94/2/56
f 82/2/57 94/2/57 92/3/57
f 91/4/58 93/5/58 81/5/58
f 86/4/1 84/5/1 83/2/1
f 93/5/54 91/4/54 92/3/54
f 81/5/1 82/2/1 96/3/1
