# Blender 4.0.2
# www.blender.org
o Barrel_2
v 0.103541 0.482004 -0.279713
v 0.095628 0.462911 0.312673
v 0.239760 0.345729 -0.279713
v 0.220664 0.337823 0.312673
v 0.239720 0.153046 -0.279713
v 0.220627 0.160959 0.312673
v 0.103444 0.016828 -0.279713
v 0.095539 0.035924 0.312673
v -0.089238 0.016868 -0.279713
v -0.081325 0.035961 0.312673
v -0.225457 0.153143 -0.279713
v -0.206361 0.161049 0.312673
v -0.225417 0.345826 -0.279713
v -0.206324 0.337913 0.312673
v -0.089141 0.482044 -0.279713
v -0.081236 0.462948 0.312673
v 0.239760 0.345729 0.312673
v 0.103541 0.482004 0.312673
v 0.239720 0.153046 0.312673
v 0.103444 0.016828 0.312673
v -0.089238 0.016868 0.312673
v -0.225457 0.153143 0.312673
v -0.225417 0.345826 0.312673
v -0.089141 0.482044 0.312673
v 0.220664 0.337823 0.289610
v 0.095628 0.462911 0.289610
v 0.220627 0.160959 0.289610
v 0.095539 0.035924 0.289610
v -0.081325 0.035961 0.289610
v -0.206361 0.161049 0.289610
v -0.206324 0.337913 0.289610
v -0.081236 0.462948 0.289610
v 0.113906 0.324779 0.289610
v 0.104573 0.216063 0.289610
v 0.190788 0.202945 0.289610
v 0.180491 0.318592 0.289610
v 0.113906 0.324779 0.323471
v 0.104573 0.216063 0.323471
v 0.190788 0.202945 0.323471
v 0.180491 0.318592 0.323471
v 0.110540 0.498890 0.016480
v 0.256649 0.352720 0.016480
v 0.256605 0.146048 0.016480
v 0.110435 -0.000061 0.016480
v -0.096237 -0.000018 0.016480
v -0.242345 0.146152 0.016480
v -0.242302 0.352824 0.016480
v -0.096132 0.498933 0.016480
vn 0.7061 0.7058 0.0569
vn 0.9984 -0.0002 0.0569
vn 0.7058 -0.7061 0.0569
vn -0.0002 -0.9984 0.0569
vn -0.7061 -0.7058 0.0569
vn -0.9984 0.0002 0.0569
vn 0.7073 0.7070 -0.0000
vn -0.7058 0.7061 0.0569
vn 0.0002 0.9984 0.0569
vn -0.0000 -0.0000 -1.0000
vn -0.0000 -0.0000 1.0000
vn -0.7070 0.7073 -0.0000
vn -0.7073 -0.7070 -0.0000
vn -0.0002 -1.0000 -0.0000
vn 1.0000 -0.0002 -0.0000
vn 0.0002 1.0000 -0.0000
vn -1.0000 0.0002 -0.0000
vn 0.7070 -0.7073 -0.0000
vn 0.0925 0.9957 -0.0000
vn -0.1504 -0.9886 -0.0000
vn 0.9961 0.0887 -0.0000
vn -0.9963 0.0855 -0.0000
vn 0.0002 0.9984 -0.0569
vn -0.7058 0.7061 -0.0569
vn -0.9984 0.0002 -0.0569
vn -0.7061 -0.7058 -0.0569
vn -0.0002 -0.9984 -0.0569
vn 0.7058 -0.7061 -0.0569
vn 0.9984 -0.0002 -0.0569
vn 0.7061 0.7058 -0.0569
vt 1.000000 1.000000
vt 0.875000 0.750000
vt 1.000000 0.750000
vt 0.750000 1.000000
vt 0.750000 0.750000
vt 0.625000 1.000000
vt 0.625000 0.750000
vt 0.500000 1.000000
vt 0.500000 0.750000
vt 0.375000 1.000000
vt 0.375000 0.750000
vt 0.250000 0.750000
vt 0.250000 0.029703
vt 0.094226 0.094226
vt 0.250000 1.000000
vt 0.125000 0.750000
vt 0.125000 1.000000
vt 0.000000 0.750000
vt 0.580294 0.419706
vt 0.919706 0.419706
vt 0.919706 0.080294
vt 0.405774 0.405774
vt 0.250000 0.490000
vt 0.250000 0.470297
vt 0.490000 0.250000
vt 0.419706 0.419706
vt 0.405774 0.094226
vt 0.470297 0.250000
vt 0.250000 0.010000
vt 0.419706 0.080294
vt 0.010000 0.250000
vt 0.080294 0.080294
vt 0.029703 0.250000
vt 0.080294 0.419706
vt 0.094226 0.405774
vt 0.428694 0.276084
vt 0.347978 0.256168
vt 0.377413 0.374173
vt 0.316515 0.355318
vt 0.125000 0.500000
vt 0.000000 0.500000
vt 0.250000 0.500000
vt 0.375000 0.500000
vt 0.500000 0.500000
vt 0.625000 0.500000
vt 0.750000 0.500000
vt 0.875000 0.500000
vt 1.000000 0.500000
vt 0.875000 1.000000
vt 0.000000 1.000000
vt 0.750000 0.490000
vt 0.990000 0.250000
vt 0.750000 0.010000
vt 0.580294 0.080294
vt 0.510000 0.250000
s 0
f 18/1/1 42/2/1 41/3/1
f 42/2/2 19/4/2 43/5/2
f 43/5/3 20/6/3 44/7/3
f 44/7/4 21/8/4 45/9/4
f 45/9/5 22/10/5 46/11/5
f 22/10/6 47/12/6 46/11/6
f 10/13/7 30/14/7 12/14/7
f 23/15/8 48/16/8 47/12/8
f 24/17/9 41/18/9 48/16/9
f 15/19/10 3/20/10 7/21/10
f 4/22/11 18/23/11 2/24/11
f 4/22/11 19/25/11 17/26/11
f 8/27/11 19/25/11 6/28/11
f 8/27/11 21/29/11 20/30/11
f 12/14/11 21/29/11 10/13/11
f 12/14/11 23/31/11 22/32/11
f 14/33/11 24/34/11 23/31/11
f 16/35/11 18/23/11 24/34/11
f 35/36/11 27/28/11 25/22/11
f 8/27/12 27/28/12 28/27/12
f 2/24/13 25/22/13 4/22/13
f 16/35/14 26/24/14 2/24/14
f 12/14/15 31/33/15 14/33/15
f 8/27/16 29/13/16 10/13/16
f 4/22/17 27/28/17 6/28/17
f 14/33/18 32/35/18 16/35/18
f 38/37/11 40/38/11 37/39/11
f 31/33/11 30/14/11 34/37/11
f 36/38/19 37/39/19 40/38/19
f 35/36/20 38/37/20 34/37/20
f 36/38/21 39/36/21 35/36/21
f 34/37/22 37/39/22 33/39/22
f 15/40/23 41/18/23 1/41/23
f 47/12/24 15/40/24 13/42/24
f 11/43/25 47/12/25 13/42/25
f 45/9/26 11/43/26 9/44/26
f 7/45/27 45/9/27 9/44/27
f 43/5/28 7/45/28 5/46/28
f 42/2/29 5/46/29 3/47/29
f 41/3/30 3/47/30 1/48/30
f 18/1/1 17/49/1 42/2/1
f 42/2/2 17/49/2 19/4/2
f 43/5/3 19/4/3 20/6/3
f 44/7/4 20/6/4 21/8/4
f 45/9/5 21/8/5 22/10/5
f 22/10/6 23/15/6 47/12/6
f 10/13/7 29/13/7 30/14/7
f 23/15/8 24/17/8 48/16/8
f 24/17/9 18/50/9 41/18/9
f 15/19/10 1/51/10 3/20/10
f 3/20/10 5/52/10 7/21/10
f 7/21/10 9/53/10 11/54/10
f 11/54/10 13/55/10 7/21/10
f 13/55/10 15/19/10 7/21/10
f 4/22/11 17/26/11 18/23/11
f 4/22/11 6/28/11 19/25/11
f 8/27/11 20/30/11 19/25/11
f 8/27/11 10/13/11 21/29/11
f 12/14/11 22/32/11 21/29/11
f 12/14/11 14/33/11 23/31/11
f 14/33/11 16/35/11 24/34/11
f 16/35/11 2/24/11 18/23/11
f 25/22/11 26/24/11 36/38/11
f 26/24/11 32/35/11 33/39/11
f 36/38/11 26/24/11 33/39/11
f 36/38/11 35/36/11 25/22/11
f 8/27/12 6/28/12 27/28/12
f 2/24/13 26/24/13 25/22/13
f 16/35/14 32/35/14 26/24/14
f 12/14/15 30/14/15 31/33/15
f 8/27/16 28/27/16 29/13/16
f 4/22/17 25/22/17 27/28/17
f 14/33/18 31/33/18 32/35/18
f 38/37/11 39/36/11 40/38/11
f 28/27/11 27/28/11 34/37/11
f 27/28/11 35/36/11 34/37/11
f 34/37/11 33/39/11 31/33/11
f 33/39/11 32/35/11 31/33/11
f 30/14/11 29/13/11 34/37/11
f 29/13/11 28/27/11 34/37/11
f 36/38/19 33/39/19 37/39/19
f 35/36/20 39/36/20 38/37/20
f 36/38/21 40/38/21 39/36/21
f 34/37/22 38/37/22 37/39/22
f 15/40/23 48/16/23 41/18/23
f 47/12/24 48/16/24 15/40/24
f 11/43/25 46/11/25 47/12/25
f 45/9/26 46/11/26 11/43/26
f 7/45/27 44/7/27 45/9/27
f 43/5/28 44/7/28 7/45/28
f 42/2/29 43/5/29 5/46/29
f 41/3/30 42/2/30 3/47/30
