# Blender 4.0.2
# www.blender.org
o Candle_1
v -0.050240 0.000707 0.050240
v -0.043575 0.014907 0.043575
v -0.050240 0.000707 -0.050240
v -0.043575 0.014907 -0.043575
v 0.050240 0.000707 0.050240
v 0.043575 0.014907 0.043575
v 0.050240 0.000707 -0.050240
v 0.043575 0.014907 -0.043575
v -0.070905 0.000707 -0.000000
v -0.061498 0.014907 0.000000
v 0.070905 0.000707 -0.000000
v 0.061498 0.014907 0.000000
v -0.000000 0.000707 -0.070905
v 0.000000 0.014907 -0.061498
v -0.000000 0.000707 0.070905
v 0.000000 0.014907 0.061498
v 0.000000 0.000000 0.000000
v -0.070905 0.014201 -0.000000
v -0.050240 0.014201 -0.050240
v -0.000000 0.014201 -0.070905
v 0.050240 0.014201 -0.050240
v 0.070905 0.014201 -0.000000
v 0.050240 0.014201 0.050240
v -0.000000 0.014201 0.070905
v -0.050240 0.014201 0.050240
v 0.040694 0.008631 0.000000
v -0.040694 0.008631 0.000000
v 0.000000 0.008631 -0.040694
v 0.000000 0.008631 0.040694
v -0.028834 0.008631 -0.028834
v 0.028834 0.008631 -0.028834
v 0.028834 0.008631 0.028834
v -0.028834 0.008631 0.028834
v 0.040694 0.302780 0.000000
v -0.040694 0.302780 0.000000
v 0.000000 0.297357 -0.029166
v 0.000000 0.302780 0.040694
v -0.020665 0.297357 -0.020665
v 0.020665 0.302780 -0.020665
v 0.020665 0.307222 0.020665
v -0.020665 0.307299 0.020665
v -0.029166 0.302780 0.000000
v -0.028834 0.297357 -0.028834
v 0.000000 0.297357 -0.040694
v 0.028834 0.302780 -0.028834
v 0.029166 0.302780 0.000000
v 0.028834 0.307222 0.028834
v 0.000000 0.302780 0.029166
v -0.028834 0.307299 0.028834
v 0.002306 0.293941 0.000000
v -0.002306 0.293941 0.000000
v 0.000000 0.293941 -0.029166
v 0.000000 0.293941 0.029166
v -0.001634 0.293941 -0.001634
v 0.001634 0.293941 -0.001634
v 0.001634 0.293941 0.001634
v -0.001634 0.293941 0.001634
v -0.029166 0.293941 0.000000
v -0.020665 0.293941 -0.020665
v 0.000000 0.293941 -0.002306
v 0.020665 0.293941 -0.020665
v 0.029166 0.293941 0.000000
v 0.020665 0.293941 0.020665
v 0.000000 0.293941 0.002306
v -0.020665 0.293941 0.020665
v 0.000000 0.326355 0.000000
v 0.002306 0.326355 0.000000
v -0.002306 0.326355 0.000000
v 0.000000 0.326355 -0.002306
v 0.000000 0.326355 0.002306
v -0.001634 0.326355 -0.001634
v 0.001634 0.326355 -0.001634
v 0.001634 0.326355 0.001634
v -0.001634 0.326355 0.001634
vn -0.9248 -0.0000 -0.3804
vn 0.3804 -0.0000 -0.9248
vn 0.9248 -0.0000 0.3804
vn -0.3804 -0.0000 0.9248
vn 0.0041 -0.9999 0.0100
vn 0.2868 0.9507 0.1180
vn -0.2868 0.9507 -0.1180
vn 0.0041 -0.9999 -0.0100
vn 0.9248 -0.0000 -0.3804
vn -0.9248 -0.0000 0.3804
vn -0.0100 -0.9999 -0.0041
vn 0.2868 0.9507 -0.1180
vn 0.1180 0.9507 0.2868
vn -0.0100 -0.9999 0.0041
vn 0.3804 -0.0000 0.9248
vn -0.3804 -0.0000 -0.9248
vn -0.0749 0.9967 -0.0308
vn 0.0308 0.9967 -0.0749
vn 0.0749 0.9967 0.0308
vn -0.0308 0.9967 0.0749
vn -0.0749 0.9967 0.0308
vn 0.0749 0.9967 -0.0308
vn -0.0308 0.9967 -0.0749
vn 0.0308 0.9967 0.0749
vn -0.1180 0.9507 -0.2868
vn -0.2868 0.9507 0.1180
vn 0.1180 0.9507 -0.2868
vn -0.1180 0.9507 0.2868
vn -0.0000 0.9673 -0.2538
vn -0.2538 0.9673 -0.0000
vn -0.0000 0.9777 -0.2102
vn 0.2137 0.9769 -0.0000
vn -0.1097 0.9879 -0.1097
vn -0.0000 1.0000 -0.0000
vn -0.1079 0.9883 0.1079
vn 0.0100 -0.9999 0.0041
vn 0.0100 -0.9999 -0.0041
vn -0.0041 -0.9999 -0.0100
vn -0.0041 -0.9999 0.0100
vn 0.1309 0.9827 -0.1309
vn -0.1309 0.9827 -0.1309
vn 0.1079 0.9883 -0.1079
vn 0.1097 0.9879 0.1097
vn -0.0000 0.9769 -0.2137
vn -0.2102 0.9777 -0.0000
vt 0.625000 0.125000
vt 0.375000 0.250000
vt 0.375000 0.125000
vt 0.625000 0.375000
vt 0.375000 0.500000
vt 0.375000 0.375000
vt 0.625000 0.625000
vt 0.375000 0.750000
vt 0.375000 0.625000
vt 0.625000 0.875000
vt 0.375000 1.000000
vt 0.375000 0.875000
vt 0.250000 0.625000
vt 0.250000 0.750000
vt 0.848137 0.625000
vt 0.840199 0.534801
vt 0.651863 0.625000
vt 0.659801 0.715199
vt 0.250000 0.500000
vt 0.625000 0.500000
vt 0.625000 0.000000
vt 0.375000 0.000000
vt 0.125000 0.500000
vt 0.125000 0.625000
vt 0.840198 0.715199
vt 0.750000 0.526863
vt 0.125000 0.750000
vt 0.625000 0.750000
vt 0.625000 0.250000
vt 0.875000 0.625000
vt 0.659801 0.534801
vt 0.750000 0.500000
vt 0.750000 0.750000
vt 0.750000 0.723137
vt 0.875000 0.750000
vt 0.875000 0.500000
vt 0.750000 0.695335
vt 0.690657 0.684343
vt 0.809343 0.565657
vt 0.820335 0.625000
vt 0.679665 0.625000
vt 0.809343 0.684343
vt 0.690657 0.565657
vt 0.750000 0.554665
vt 0.754088 0.629088
vt 0.755562 0.625000
vt 0.754088 0.620912
vt 0.750000 0.619438
vt 0.745912 0.620912
vt 0.750000 0.630562
vt 0.745912 0.629088
vt 0.744438 0.625000
vt 0.750000 0.625000
vt 0.625000 1.000000
s 0
f 18/1/1 3/2/1 9/3/1
f 20/4/2 7/5/2 13/6/2
f 22/7/3 5/8/3 11/9/3
f 24/10/4 1/11/4 15/12/4
f 17/13/5 5/8/5 15/14/5
f 10/15/6 30/16/6 4/16/6
f 12/17/7 32/18/7 6/18/7
f 7/5/8 17/13/8 13/19/8
f 21/20/9 11/9/9 7/5/9
f 25/21/10 9/3/10 1/22/10
f 3/23/11 17/13/11 9/24/11
f 10/15/12 33/25/12 27/15/12
f 14/26/13 30/16/13 28/26/13
f 17/13/14 1/27/14 9/24/14
f 23/28/15 15/12/15 5/8/15
f 19/29/16 13/6/16 3/2/16
f 4/16/17 18/30/17 10/15/17
f 8/31/18 20/32/18 14/26/18
f 6/18/19 22/7/19 12/17/19
f 2/25/20 24/33/20 16/34/20
f 2/25/21 18/30/21 25/35/21
f 8/31/22 22/7/22 21/20/22
f 4/16/23 20/32/23 19/36/23
f 6/18/24 24/33/24 23/28/24
f 32/18/3 34/17/3 47/18/3
f 33/25/10 35/15/10 27/15/10
f 30/16/16 44/26/16 28/26/16
f 31/31/2 44/26/2 45/31/2
f 16/34/25 32/18/25 29/34/25
f 12/17/26 31/31/26 26/17/26
f 16/34/27 33/25/27 2/25/27
f 14/26/28 31/31/28 8/31/28
f 48/37/16 63/38/16 53/37/16
f 38/39/3 58/40/3 59/39/3
f 46/41/1 63/38/1 40/38/1
f 42/40/9 65/42/9 58/40/9
f 27/15/1 43/16/1 30/16/1
f 32/18/15 37/34/15 29/34/15
f 31/31/9 34/17/9 26/17/9
f 33/25/4 37/34/4 49/25/4
f 38/39/29 35/15/29 42/40/29
f 39/43/30 44/26/30 36/44/30
f 40/38/31 34/17/31 46/41/31
f 41/42/32 37/34/32 48/37/32
f 41/42/33 35/15/33 49/25/33
f 39/43/34 34/17/34 45/31/34
f 38/39/34 44/26/34 43/16/34
f 40/38/35 37/34/35 47/18/35
f 57/45/10 68/46/10 51/46/10
f 54/47/16 69/48/16 60/48/16
f 60/48/2 72/49/2 55/49/2
f 64/50/4 74/45/4 57/45/4
f 39/43/10 62/41/10 46/41/10
f 48/37/2 65/42/2 41/42/2
f 36/44/4 61/43/4 39/43/4
f 38/39/15 52/44/15 36/44/15
f 54/47/34 58/40/34 51/46/34
f 55/49/34 52/44/34 60/48/34
f 56/51/34 62/41/34 50/52/34
f 57/45/34 53/37/34 64/50/34
f 57/45/34 58/40/34 65/42/34
f 55/49/34 62/41/34 61/43/34
f 54/47/34 52/44/34 59/39/34
f 56/51/34 53/37/34 63/38/34
f 66/53/34 74/45/34 70/50/34
f 71/47/34 66/53/34 69/48/34
f 72/49/34 66/53/34 67/52/34
f 66/53/34 73/51/34 67/52/34
f 50/52/3 73/51/3 56/51/3
f 51/46/1 71/47/1 54/47/1
f 56/51/15 70/50/15 64/50/15
f 55/49/9 67/52/9 50/52/9
f 18/1/1 19/29/1 3/2/1
f 20/4/2 21/20/2 7/5/2
f 22/7/3 23/28/3 5/8/3
f 24/10/4 25/54/4 1/11/4
f 17/13/36 11/9/36 5/8/36
f 10/15/6 27/15/6 30/16/6
f 12/17/7 26/17/7 32/18/7
f 7/5/37 11/9/37 17/13/37
f 21/20/9 22/7/9 11/9/9
f 25/21/10 18/1/10 9/3/10
f 3/23/38 13/19/38 17/13/38
f 10/15/12 2/25/12 33/25/12
f 14/26/13 4/16/13 30/16/13
f 17/13/39 15/14/39 1/27/39
f 23/28/15 24/10/15 15/12/15
f 19/29/16 20/4/16 13/6/16
f 4/16/17 19/36/17 18/30/17
f 8/31/18 21/20/18 20/32/18
f 6/18/19 23/28/19 22/7/19
f 2/25/20 25/35/20 24/33/20
f 2/25/21 10/15/21 18/30/21
f 8/31/22 12/17/22 22/7/22
f 4/16/23 14/26/23 20/32/23
f 6/18/24 16/34/24 24/33/24
f 32/18/3 26/17/3 34/17/3
f 33/25/10 49/25/10 35/15/10
f 30/16/16 43/16/16 44/26/16
f 31/31/2 28/26/2 44/26/2
f 16/34/25 6/18/25 32/18/25
f 12/17/26 8/31/26 31/31/26
f 16/34/27 29/34/27 33/25/27
f 14/26/28 28/26/28 31/31/28
f 48/37/16 40/38/16 63/38/16
f 38/39/3 42/40/3 58/40/3
f 46/41/1 62/41/1 63/38/1
f 42/40/9 41/42/9 65/42/9
f 27/15/1 35/15/1 43/16/1
f 32/18/15 47/18/15 37/34/15
f 31/31/9 45/31/9 34/17/9
f 33/25/4 29/34/4 37/34/4
f 38/39/40 43/16/40 35/15/40
f 39/43/41 45/31/41 44/26/41
f 40/38/42 47/18/42 34/17/42
f 41/42/43 49/25/43 37/34/43
f 41/42/44 42/40/44 35/15/44
f 39/43/34 46/41/34 34/17/34
f 38/39/34 36/44/34 44/26/34
f 40/38/45 48/37/45 37/34/45
f 57/45/10 74/45/10 68/46/10
f 54/47/16 71/47/16 69/48/16
f 60/48/2 69/48/2 72/49/2
f 64/50/4 70/50/4 74/45/4
f 39/43/10 61/43/10 62/41/10
f 48/37/2 53/37/2 65/42/2
f 36/44/4 52/44/4 61/43/4
f 38/39/15 59/39/15 52/44/15
f 54/47/34 59/39/34 58/40/34
f 55/49/34 61/43/34 52/44/34
f 56/51/34 63/38/34 62/41/34
f 57/45/34 65/42/34 53/37/34
f 57/45/34 51/46/34 58/40/34
f 55/49/34 50/52/34 62/41/34
f 54/47/34 60/48/34 52/44/34
f 56/51/34 64/50/34 53/37/34
f 66/53/34 68/46/34 74/45/34
f 71/47/34 68/46/34 66/53/34
f 72/49/34 69/48/34 66/53/34
f 66/53/34 70/50/34 73/51/34
f 50/52/3 67/52/3 73/51/3
f 51/46/1 68/46/1 71/47/1
f 56/51/15 73/51/15 70/50/15
f 55/49/9 72/49/9 67/52/9
