# Blender 4.0.2
# www.blender.org
o Cardboard_Box_2
v -0.189804 0.000000 0.176693
v -0.182056 0.353386 0.176693
v -0.186811 0.000000 -0.182664
v -0.182056 0.353386 -0.176693
v 0.163073 0.000000 0.160043
v 0.171330 0.353386 0.176693
v 0.177902 0.000000 -0.171278
v 0.171330 0.353386 -0.176693
v 0.171330 0.353386 0.000000
v 0.176693 0.000000 0.000000
v -0.182056 0.353386 0.000000
v -0.186693 0.000000 0.000000
v 0.000000 0.000000 -0.176693
v -0.005363 0.353386 -0.176693
v 0.000000 0.000000 0.176693
v -0.005363 0.353386 0.176693
v 0.000000 0.000000 0.000000
v -0.193938 0.176693 0.173505
v -0.188496 0.176693 -0.176693
v 0.176693 0.176693 -0.176693
v 0.166563 0.176693 0.173505
v -0.192126 0.176693 0.010928
v 0.175426 0.176693 0.000000
v -0.004880 0.176693 0.189209
v 0.000000 0.176693 -0.193761
v -0.005428 0.331865 0.000000
vn -0.0000 -1.0000 -0.0000
vn 0.0961 0.0029 -0.9954
vn -0.9983 0.0557 -0.0193
vn -0.0828 -0.0124 0.9965
vn 0.9984 0.0231 0.0510
vn 0.0910 0.0706 0.9933
vn -0.9977 0.0673 -0.0111
vn 0.9995 0.0303 0.0072
vn -0.0902 0.0033 -0.9959
vn 0.0318 -0.0961 -0.9949
vn 0.9999 0.0072 0.0071
vn -0.9994 -0.0296 -0.0176
vn 0.1013 -0.0776 0.9918
vn 0.9964 0.0071 0.0848
vn -0.0000 -0.0707 0.9975
vn -1.0000 -0.0096 0.0006
vn 0.0304 -0.0304 -0.9991
vn -0.0000 1.0000 -0.0000
vn -0.0000 0.0961 -0.9954
vn -0.9993 0.0364 -0.0000
vn -0.0000 0.0707 0.9975
vn 0.9996 -0.0270 -0.0000
vn -0.0000 -0.0180 0.9998
vn -0.9984 0.0569 -0.0000
vn 0.9997 0.0232 -0.0000
vn -0.0901 0.0328 -0.9954
vn 0.9999 0.0071 0.0072
vn -0.9997 -0.0236 -0.0111
vn 0.0910 -0.0679 0.9935
vn 0.9984 -0.0236 0.0510
vn -0.0828 0.0160 0.9964
vn -0.9994 -0.0295 -0.0193
vn 0.0957 -0.0957 -0.9908
vn 0.1201 0.9855 0.1201
vn -0.1200 0.9855 -0.1200
vn -0.1200 0.9855 0.1200
vn 0.1201 0.9855 -0.1201
vt 0.375000 0.500000
vt 0.250000 0.625000
vt 0.250000 0.500000
vt 0.500000 0.375000
vt 0.625000 0.500000
vt 0.500000 0.500000
vt 0.625000 0.125000
vt 0.500000 0.250000
vt 0.500000 0.125000
vt 0.500000 0.875000
vt 0.625000 1.000000
vt 0.500000 1.000000
vt 0.625000 0.625000
vt 0.500000 0.750000
vt 0.500000 0.625000
vt 0.375000 0.750000
vt 0.250000 0.750000
vt 0.625000 0.875000
vt 0.125000 0.625000
vt 0.125000 0.750000
vt 0.625000 0.000000
vt 0.500000 0.000000
vt 0.625000 0.250000
vt 0.125000 0.500000
vt 0.375000 0.250000
vt 0.375000 0.375000
vt 0.375000 0.625000
vt 0.375000 0.000000
vt 0.375000 0.125000
vt 0.375000 0.875000
vt 0.375000 1.000000
vt 0.625000 0.375000
vt 0.625000 0.750000
vt 0.625000 0.374908
s 0
f 7/1/1 17/2/1 13/3/1
f 25/4/2 8/5/2 20/6/2
f 11/7/3 19/8/3 22/9/3
f 24/10/4 2/11/4 18/12/4
f 9/13/5 21/14/5 23/15/5
f 17/2/1 5/16/1 15/17/1
f 21/14/6 16/18/6 24/10/6
f 12/19/1 15/17/1 1/20/1
f 2/21/7 22/9/7 18/22/7
f 8/5/8 23/15/8 20/6/8
f 4/23/9 25/4/9 19/8/9
f 13/3/1 12/19/1 3/24/1
f 3/25/10 25/4/10 13/26/10
f 7/1/11 23/15/11 10/27/11
f 1/28/12 22/9/12 12/29/12
f 21/14/13 15/30/13 5/16/13
f 23/15/14 5/16/14 10/27/14
f 24/10/15 1/31/15 15/30/15
f 12/29/16 19/8/16 3/25/16
f 13/26/17 20/6/17 7/1/17
f 11/7/18 14/32/18 4/23/18
f 9/13/18 16/18/18 6/33/18
f 14/32/18 9/13/18 8/5/18
f 16/18/18 11/7/18 2/11/18
f 7/1/1 10/27/1 17/2/1
f 25/4/19 14/32/19 8/5/19
f 11/7/20 4/23/20 19/8/20
f 24/10/21 16/18/21 2/11/21
f 9/13/22 6/33/22 21/14/22
f 17/2/1 10/27/1 5/16/1
f 21/14/23 6/33/23 16/18/23
f 12/19/1 17/2/1 15/17/1
f 2/21/24 11/7/24 22/9/24
f 8/5/25 9/13/25 23/15/25
f 4/23/19 14/32/19 25/4/19
f 13/3/1 17/2/1 12/19/1
f 3/25/26 19/8/26 25/4/26
f 7/1/27 20/6/27 23/15/27
f 1/28/28 18/22/28 22/9/28
f 21/14/29 24/10/29 15/30/29
f 23/15/30 21/14/30 5/16/30
f 24/10/31 18/12/31 1/31/31
f 12/29/32 22/9/32 19/8/32
f 13/26/33 25/4/33 20/6/33
f 11/7/34 26/34/34 14/32/34
f 9/13/35 26/34/35 16/18/35
f 14/32/36 26/34/36 9/13/36
f 16/18/37 26/34/37 11/7/37
